<?xml version="1.0" standalone="no"?>
<!DOCTYPE svg PUBLIC "-//W3C//DTD SVG 20010904//EN"
 "http://www.w3.org/TR/2001/REC-SVG-20010904/DTD/svg10.dtd">
<svg version="1.0" xmlns="http://www.w3.org/2000/svg"
 width="997.000000pt" height="660.000000pt" viewBox="0 0 997.000000 660.000000"
 preserveAspectRatio="xMidYMid meet">

<g transform="translate(0.000000,660.000000) scale(0.100000,-0.100000)"
fill="#000000" stroke="none">
<path d="M0 3300 l0 -3300 4985 0 4985 0 0 3300 0 3300 -4985 0 -4985 0 0
-3300z m4990 2215 c0 -110 -4 -175 -10 -175 -6 0 -10 65 -10 175 0 110 4 175
10 175 6 0 10 -65 10 -175z m-107 83 c12 -86 12 -251 1 -255 -13 -4 -24 93
-24 215 0 87 14 111 23 40z m217 -10 c0 -116 -13 -249 -24 -245 -11 4 -10 272
1 290 13 21 23 1 23 -45z m-316 -65 c13 -67 18 -193 8 -193 -17 0 -20 10 -27
118 -5 69 -4 102 3 102 6 0 13 -12 16 -27z m412 -50 c-10 -108 -17 -143 -28
-143 -7 0 -8 35 -3 103 7 107 10 117 27 117 7 0 8 -25 4 -77z m-1003 -120 c31
-80 51 -142 46 -147 -5 -5 -11 -7 -15 -4 -11 12 -112 277 -106 282 14 15 24
-3 75 -131z m1596 -17 c-31 -80 -58 -136 -66 -136 -19 0 -18 4 32 130 67 170
65 164 76 153 8 -8 -5 -52 -42 -147z m-1696 -5 c37 -81 67 -151 67 -155 0 -4
-7 -6 -16 -4 -9 2 -41 62 -80 151 -35 81 -64 150 -64 152 0 3 6 5 13 5 8 0 43
-64 80 -149z m1858 134 c0 -26 -126 -295 -138 -295 -7 0 -13 3 -13 6 0 18 135
304 143 301 4 -1 8 -7 8 -12z m-1256 -52 c4 -27 9 -55 11 -65 5 -15 -12 -35
-22 -26 -7 7 -21 128 -16 133 14 13 21 1 27 -42z m591 -14 c-6 -66 -12 -82
-27 -74 -8 6 -5 52 7 113 2 12 9 22 16 22 7 0 9 -19 4 -61z m394 -63 c-17 -53
-35 -98 -40 -101 -21 -13 -18 19 10 101 43 126 39 119 51 107 8 -8 2 -38 -21
-107z m-1378 14 c15 -46 28 -93 28 -104 0 -39 -26 5 -54 89 -29 89 -32 109
-14 103 6 -2 24 -42 40 -88z m304 15 c3 -25 4 -49 0 -52 -11 -12 -24 11 -31
55 -5 34 -4 42 9 42 10 0 17 -14 22 -45z m778 3 c-7 -44 -19 -66 -30 -55 -12
12 7 97 22 97 11 0 13 -9 8 -42z m-1378 -99 c41 -83 62 -135 56 -141 -10 -10
-142 228 -142 256 0 40 25 6 86 -115z m2034 121 c0 -19 -130 -270 -140 -270
-18 0 -11 18 55 150 57 114 85 153 85 120z m-1629 -63 c16 -53 15 -67 -2 -67
-8 0 -39 93 -39 118 0 33 26 1 41 -51z m88 41 c20 -55 22 -78 6 -78 -8 0 -17
12 -21 28 -3 15 -8 33 -10 40 -4 14 3 32 12 32 2 0 8 -10 13 -22z m978 -37
c-12 -44 -34 -54 -29 -13 5 42 22 76 32 66 6 -6 5 -25 -3 -53z m113 41 c0 -10
-7 -39 -16 -65 -26 -76 -48 -53 -23 24 6 19 12 40 15 47 5 19 24 14 24 -6z
m-1649 -193 c44 -79 50 -99 29 -99 -10 0 -100 162 -100 180 0 28 27 -2 71 -81z
m2104 -13 c-48 -89 -60 -103 -70 -87 -9 16 95 195 107 183 7 -7 -6 -39 -37
-96z m-715 36 c317 -66 568 -178 815 -363 105 -78 297 -271 376 -379 565 -767
503 -1807 -150 -2493 -643 -675 -1696 -788 -2473 -266 -421 283 -707 712 -814
1221 -31 151 -43 436 -25 593 87 737 580 1362 1265 1604 144 51 263 78 461
105 17 2 125 3 240 1 159 -3 233 -8 305 -23z m-1461 -100 c31 -49 38 -72 22
-72 -11 0 -71 92 -71 108 0 25 19 10 49 -36z m2240 -21 c-18 -28 -38 -51 -45
-51 -20 0 -18 4 22 67 23 36 39 52 45 46 7 -7 -1 -28 -22 -62z m-2307 -50 c25
-35 27 -51 8 -51 -8 0 -60 72 -60 83 0 19 28 2 52 -32z m2402 16 c-33 -57 -64
-84 -64 -55 0 18 50 79 61 72 5 -3 6 -11 3 -17z m-2486 -70 c23 -35 28 -57 13
-57 -11 0 -61 65 -61 79 0 22 26 10 48 -22z m2562 21 c0 -19 -44 -78 -57 -78
-20 0 -15 18 15 56 28 35 42 43 42 22z m-2680 -190 c0 -20 -30 -4 -66 35 -86
92 -96 105 -88 118 5 9 29 -11 81 -67 40 -43 73 -82 73 -86z m34 118 c36 -44
45 -66 27 -66 -11 0 -91 91 -91 103 0 20 32 2 64 -37z m2749 21 c-34 -58 -93
-106 -93 -77 0 17 81 100 91 94 5 -3 6 -11 2 -17z m127 2 c0 -15 -119 -143
-137 -147 -28 -7 -11 24 50 89 59 64 87 82 87 58z m-3080 -103 c70 -69 97
-103 90 -110 -12 -12 -223 192 -214 206 9 15 19 7 124 -96z m3220 97 c0 -10
-203 -213 -212 -213 -23 0 2 35 89 122 87 87 123 114 123 91z m-3310 -154 c81
-75 118 -115 112 -121 -7 -7 -50 25 -131 98 -108 97 -139 134 -112 134 4 0 63
-50 131 -111z m3408 98 c-4 -16 -236 -227 -250 -227 -25 0 6 37 112 134 108
98 146 124 138 93z m-3458 -188 c103 -85 125 -109 99 -109 -16 0 -228 173
-228 188 -2 24 22 10 129 -79z m3510 82 c0 -13 -222 -191 -238 -191 -26 0 -7
20 103 110 102 84 135 103 135 81z m-3537 -181 c70 -50 95 -80 66 -80 -20 0
-159 112 -159 127 0 19 2 18 93 -47z m3527 41 c0 -5 -37 -36 -82 -70 -55 -41
-85 -58 -92 -51 -7 7 -4 15 9 24 11 8 47 35 80 60 58 44 85 56 85 37z m-3548
-156 c39 -26 48 -36 35 -40 -17 -7 -107 48 -107 65 0 18 20 11 72 -25z m3548
26 c0 -15 -109 -81 -116 -70 -7 12 -3 17 51 53 40 26 65 33 65 17z m-3592
-111 c30 -19 43 -40 23 -40 -19 0 -81 42 -75 51 8 13 15 11 52 -11z m3612 10
c0 -12 -59 -50 -77 -50 -23 0 -14 18 20 38 36 23 57 27 57 12z m-3667 -96 c41
-21 40 -21 32 -33 -7 -13 -85 23 -85 39 0 14 16 12 53 -6z m3717 6 c0 -16 -81
-53 -92 -42 -7 7 3 17 28 31 43 22 64 26 64 11z m-3770 -85 c46 -23 65 -45 40
-45 -19 0 -110 50 -110 60 0 16 17 12 70 -15z m3845 15 c3 -5 -21 -23 -54 -40
-38 -19 -62 -26 -66 -19 -9 13 -10 11 50 42 57 30 62 31 70 17z m-3835 -137
c0 -18 0 -18 -98 24 -97 40 -107 47 -98 61 8 14 196 -67 196 -85z m3948 72
c-3 -11 -164 -85 -186 -85 -34 0 1 28 79 62 82 36 113 43 107 23z m-4136 -90
c142 -53 163 -64 151 -76 -12 -12 -283 92 -283 108 0 18 2 18 132 -32z m4252
16 c-9 -8 -255 -101 -267 -101 -4 0 -7 6 -7 13 0 15 274 119 279 105 2 -5 -1
-13 -5 -17z m-4282 -113 c94 -31 158 -58 158 -65 0 -7 -3 -13 -7 -13 -29 0
-323 107 -323 117 0 7 3 13 7 13 4 0 78 -24 165 -52z m4366 30 c-4 -11 -286
-107 -316 -108 -8 0 -12 6 -10 12 5 13 276 106 311 107 10 1 17 -4 15 -11z
m-4375 -135 c94 -25 137 -41 137 -51 0 -16 -6 -15 -169 31 -63 18 -116 38
-119 45 -5 17 -3 17 151 -25z m4377 24 c0 -9 -48 -27 -137 -50 -147 -40 -163
-42 -163 -27 0 9 28 18 205 68 85 25 95 26 95 9z m-4346 -135 c44 -11 82 -24
84 -30 5 -17 -13 -15 -117 9 -63 14 -91 25 -91 35 0 10 7 13 23 9 12 -3 58
-13 101 -23z m4276 8 c0 -5 -10 -12 -22 -15 -138 -34 -179 -41 -184 -33 -9 14
-5 16 82 37 90 22 124 25 124 11z m-4227 -116 c23 -7 22 -24 -2 -24 -55 0
-111 14 -111 27 0 12 9 14 48 9 26 -4 55 -9 65 -12z m4167 2 c0 -8 -15 -16
-37 -20 -21 -4 -50 -9 -65 -12 -21 -4 -28 -2 -28 9 0 11 17 19 53 25 74 14 77
14 77 -2z m-4189 -96 c11 0 19 -7 19 -16 0 -13 -7 -15 -31 -10 -17 3 -40 6
-50 6 -11 0 -19 7 -19 16 0 13 7 15 31 10 17 -3 40 -6 50 -6z m4169 -9 c0 -11
-35 -21 -72 -21 -29 0 -38 14 -15 23 21 9 87 7 87 -2z m-4161 -97 c13 -12 -19
-20 -56 -16 -29 3 -43 9 -43 19 0 11 9 13 48 7 26 -3 49 -8 51 -10z m4181 -3
c0 -11 -36 -21 -77 -21 -31 0 -41 9 -26 23 10 10 103 8 103 -2z m-4187 -96
c-2 -5 -32 -11 -68 -13 -60 -3 -76 3 -58 22 11 11 128 2 126 -9z m4217 -10 c0
-13 -11 -15 -62 -13 -38 2 -63 8 -66 16 -3 9 14 12 62 12 53 0 66 -3 66 -15z
m-4220 -90 c0 -12 -18 -15 -104 -15 -96 0 -126 7 -109 24 3 3 53 6 110 6 85 0
103 -3 103 -15z m4310 -5 c0 -6 -43 -10 -110 -10 -67 0 -110 4 -110 10 0 6 43
10 110 10 67 0 110 -4 110 -10z m-4305 -81 c4 -6 5 -12 3 -14 -9 -10 -294 -23
-302 -15 -15 15 10 19 149 29 72 4 133 9 137 10 4 0 10 -4 13 -10z m4379 -20
c20 -18 -6 -20 -145 -12 -105 6 -144 12 -147 21 -4 12 21 13 139 7 79 -4 148
-11 153 -16z m-4369 -80 c4 -6 5 -12 3 -14 -2 -2 -79 -12 -171 -21 -152 -16
-192 -16 -174 3 5 5 135 22 324 42 6 0 15 -4 18 -10z m4247 -10 c134 -12 170
-20 155 -35 -8 -8 -321 21 -338 31 -16 11 2 27 25 22 11 -3 83 -11 158 -18z
m-4232 -88 c0 -11 -19 -15 -167 -37 -112 -16 -148 -15 -130 3 8 8 207 40 260
42 20 0 37 -3 37 -8z m4183 -11 c151 -23 164 -27 151 -40 -6 -6 -60 -2 -144
11 -154 23 -164 25 -155 39 8 13 -6 13 148 -10z m-4165 -82 c-5 -15 -204 -56
-214 -45 -13 12 4 19 88 37 103 22 131 24 126 8z m4107 -8 c104 -21 121 -28
108 -40 -13 -13 -213 30 -213 46 0 17 -10 18 105 -6z m-4087 -82 c-6 -17 -126
-50 -134 -37 -8 14 -6 15 56 32 70 19 83 20 78 5z m4041 -10 c30 -7 51 -17 51
-25 0 -16 -12 -16 -74 0 -27 7 -51 18 -54 25 -5 15 13 15 77 0z m-4019 -83 c0
-13 -55 -35 -88 -35 -27 0 -5 24 34 36 53 16 54 16 54 -1z m3987 -10 c50 -21
31 -37 -24 -22 -24 6 -43 17 -43 24 0 17 22 16 67 -2z m-3957 -85 c0 -11 -29
-24 -75 -36 -37 -9 -31 14 8 31 38 17 67 19 67 5z m3950 -29 c0 -17 -14 -18
-56 -4 -42 14 -51 23 -38 35 7 8 94 -21 94 -31z m-3920 -56 c0 -16 -81 -55
-113 -55 -19 0 -19 2 -7 14 11 11 95 51 118 55 1 1 2 -6 2 -14z m3859 -16 c28
-12 51 -28 51 -35 0 -18 2 -18 -64 7 -31 12 -56 28 -56 35 0 19 8 18 69 -7z
m-3819 -73 c0 -7 -42 -32 -92 -55 -100 -44 -108 -47 -108 -30 0 9 172 97 193
99 4 0 7 -6 7 -14z m3820 -37 c84 -39 110 -59 75 -59 -24 0 -185 78 -185 89 0
17 14 13 110 -30z m-3780 -51 c0 -13 -235 -139 -258 -138 -32 0 1 25 113 85
125 66 145 73 145 53z m3771 -55 c71 -38 129 -74 129 -80 0 -7 -2 -13 -5 -13
-3 0 -64 29 -135 65 -80 40 -130 71 -130 80 0 8 3 15 6 15 3 0 64 -30 135 -67z
m-3722 -37 c-7 -7 -269 -156 -284 -163 -9 -3 -15 1 -15 8 0 19 282 181 294
169 5 -5 8 -12 5 -14z m3691 -65 c125 -73 161 -101 128 -101 -19 0 -281 154
-286 168 -8 24 25 10 158 -67z m-3641 -15 c-17 -16 -241 -156 -250 -156 -28 0
8 32 117 102 71 45 123 73 128 67 5 -5 8 -10 5 -13z m3567 -62 c140 -90 130
-82 118 -94 -11 -11 -254 142 -254 160 0 18 15 11 136 -66z m-3516 -8 c0 -14
-150 -126 -170 -126 -25 0 -4 23 73 79 89 64 97 68 97 47z m3426 -52 c43 -31
81 -58 83 -60 3 -3 0 -9 -5 -14 -11 -11 -173 98 -174 118 0 21 14 14 96 -44z
m-3366 -24 c0 -5 -23 -28 -52 -51 -66 -52 -80 -32 -17 22 43 38 69 49 69 29z
m3284 -36 c33 -25 45 -39 37 -47 -12 -12 -100 50 -101 71 0 20 14 14 64 -24z
m-3254 -74 c-35 -29 -60 -38 -60 -21 0 5 17 23 37 40 50 41 72 23 23 -19z
m3175 9 c25 -22 33 -35 26 -42 -8 -8 -22 -1 -46 23 -58 56 -41 72 20 19z
m-3085 -53 c0 -8 -14 -26 -31 -41 -24 -19 -35 -23 -43 -15 -8 9 -2 19 24 41
38 32 50 36 50 15z m3017 -18 c23 -21 31 -48 15 -48 -10 0 -62 53 -62 63 0 14
24 6 47 -15z m-2947 -48 c0 -16 -71 -90 -86 -90 -24 0 -15 23 23 62 36 37 63
49 63 28z m2889 -34 c59 -60 45 -84 -15 -25 -40 40 -56 69 -36 69 4 0 27 -20
51 -44z m-2819 -27 c0 -14 -128 -159 -141 -159 -21 0 -5 27 57 96 64 71 84 87
84 63z m2774 -65 c65 -74 79 -99 52 -92 -17 4 -136 139 -136 156 0 25 19 10
84 -64z m-2704 3 c0 -23 -181 -240 -192 -229 -7 7 21 49 83 126 89 112 109
130 109 103z m2659 -106 c50 -62 88 -117 85 -122 -3 -5 -10 -7 -15 -3 -22 13
-188 228 -183 236 10 16 20 5 113 -111z m-2579 53 c0 -4 -43 -67 -95 -140 -88
-123 -115 -152 -115 -123 0 18 184 269 197 269 7 0 13 -3 13 -6z m2504 -121
c85 -120 112 -170 88 -162 -6 2 -54 64 -106 138 -85 119 -102 152 -78 151 4
-1 47 -57 96 -127z m-2424 57 c0 -14 -144 -235 -158 -244 -31 -19 -13 23 58
132 72 110 100 142 100 112z m2333 -108 c73 -112 88 -142 68 -142 -8 0 -171
240 -171 253 0 4 6 7 13 7 6 0 47 -53 90 -118z m-2253 57 c0 -17 -100 -179
-111 -179 -18 0 -9 23 42 106 46 77 69 101 69 73z m2143 -74 c47 -85 54 -105
38 -105 -8 0 -111 170 -111 184 0 3 6 6 13 6 6 0 33 -39 60 -85z m-2088 -30
c-17 -30 -33 -55 -36 -55 -19 0 -15 19 13 72 22 41 34 56 42 48 7 -7 1 -27
-19 -65z m1980 22 c25 -44 32 -77 17 -77 -10 0 -62 92 -62 109 0 24 20 9 45
-32z m-1884 -46 c-12 -22 -26 -41 -31 -41 -14 0 -13 11 4 51 18 42 27 52 39
40 5 -5 0 -25 -12 -50z m1792 14 c19 -41 21 -55 7 -55 -8 0 -50 70 -50 85 0 3
6 5 13 5 7 0 21 -16 30 -35z m-100 -22 c25 -50 30 -73 14 -73 -16 0 -51 76
-42 91 9 14 13 11 28 -18z m-1588 0 c-4 -10 -12 -30 -17 -45 -5 -16 -16 -28
-24 -28 -18 0 -17 1 2 50 9 22 23 40 31 40 10 0 13 -5 8 -17z m88 -19 c10 -10
-36 -124 -50 -124 -17 0 -17 3 8 71 21 56 28 66 42 53z m1423 -46 c9 -29 19
-59 22 -65 2 -7 -3 -13 -11 -13 -16 0 -61 113 -49 124 13 14 21 3 38 -46z
m-1327 10 c-1 -31 -57 -192 -68 -196 -6 -2 -11 5 -11 15 0 18 46 168 56 185 8
12 24 10 23 -4z m1250 -87 c36 -113 35 -111 18 -111 -14 0 -79 188 -70 203 12
19 23 0 52 -92z m-1159 63 c0 -5 -39 -162 -61 -246 -6 -24 -16 -38 -25 -38 -9
0 -14 6 -12 13 3 6 20 72 39 145 21 81 39 132 46 132 7 0 13 -3 13 -6z m1050
-36 c6 -24 22 -84 36 -134 28 -106 29 -114 10 -114 -9 0 -24 41 -45 128 -18
70 -34 135 -37 145 -3 11 0 17 10 17 10 0 19 -16 26 -42z m-960 4 c0 -19 -56
-288 -65 -311 -4 -10 -9 -11 -16 -4 -8 8 31 225 57 316 7 22 24 22 24 -1z
m888 -134 c35 -168 38 -192 20 -186 -7 3 -26 73 -45 164 -38 188 -36 174 -20
174 9 0 24 -48 45 -152z m-812 -16 c-13 -79 -27 -146 -30 -149 -18 -19 -18 22
2 148 22 145 28 167 43 152 4 -4 -2 -72 -15 -151z m684 146 c0 -2 11 -67 24
-146 13 -82 19 -145 14 -148 -5 -3 -11 -4 -14 -2 -2 3 -13 61 -24 129 -11 68
-22 134 -25 147 -4 15 -1 22 10 22 8 0 15 -1 15 -2z m-570 -21 c0 -24 -21
-182 -26 -196 -3 -9 -8 -11 -14 -5 -9 9 3 165 15 202 6 16 25 16 25 -1z m481
-38 c19 -133 20 -171 7 -167 -13 5 -21 40 -33 152 -5 55 -4 67 7 64 7 -3 16
-25 19 -49z m-391 -8 c0 -54 -7 -81 -21 -81 -10 0 -12 53 -3 99 10 48 24 37
24 -18z m100 -7 c0 -40 -4 -55 -12 -52 -14 5 -23 70 -14 94 12 32 26 11 26
-42z m98 -5 c-2 -24 -7 -44 -13 -44 -12 0 -19 69 -10 93 11 29 26 -4 23 -49z
m97 18 c8 -52 4 -87 -10 -90 -6 -1 -11 27 -13 66 -3 75 13 92 23 24z"/>
<path d="M4900 5203 c-504 -27 -956 -231 -1295 -584 -144 -150 -242 -291 -336
-482 -258 -523 -258 -1148 0 -1672 137 -278 346 -528 584 -698 346 -248 709
-366 1125 -367 502 0 973 193 1328 545 297 294 476 635 545 1035 128 744 -199
1492 -836 1913 -253 167 -601 285 -890 302 -55 3 -116 7 -135 8 -19 2 -60 2
-90 0z m-1116 -1304 c85 -21 141 -94 122 -157 -8 -23 -36 -33 -60 -20 -22 12
-20 33 6 68 l22 30 -29 30 c-59 62 -178 62 -249 -1 -53 -46 -71 -105 -71 -229
0 -95 3 -111 28 -162 33 -68 77 -99 148 -106 67 -6 130 19 174 71 41 47 47 40
9 -11 -16 -20 -50 -45 -82 -59 -46 -22 -64 -25 -119 -20 -122 9 -210 93 -232
221 -41 235 118 399 333 345z m579 -279 c98 -256 103 -265 132 -271 17 -4 -17
-7 -75 -6 -58 0 -94 2 -80 4 14 3 29 8 33 12 4 4 -5 41 -21 82 l-28 74 -113 0
-113 0 -30 -74 c-16 -41 -25 -77 -21 -82 4 -4 19 -9 33 -12 14 -2 -6 -4 -45
-4 -38 0 -60 2 -48 4 12 2 26 10 32 17 6 7 56 129 111 271 55 142 104 263 107
269 10 16 17 0 126 -284z m453 52 c84 -123 155 -226 158 -229 3 -4 6 95 6 220
l0 226 -27 4 c-16 2 -1 4 32 5 39 0 51 -2 35 -7 l-25 -7 -3 -272 c-2 -251 -4
-272 -20 -272 -11 1 -58 62 -132 172 -63 94 -139 205 -168 247 l-52 76 2 -240
3 -239 25 -7 c17 -5 5 -7 -35 -7 -40 0 -52 2 -35 7 l25 7 0 264 0 264 -25 7
c-17 5 -7 7 29 6 l55 -2 152 -223z m625 213 c119 -42 172 -121 173 -255 1 -66
-3 -85 -29 -135 -61 -119 -144 -156 -354 -154 -75 1 -125 4 -111 8 l25 7 0
264 0 264 -25 7 c-14 4 43 7 126 8 113 1 163 -3 195 -14z m402 8 l-23 -4 0
-270 0 -269 84 0 c76 0 88 3 115 25 19 17 33 41 39 68 9 40 10 39 11 -30 l1
-73 -187 1 c-104 1 -178 4 -165 6 l22 4 0 269 0 269 -22 4 c-13 2 15 4 62 4
47 0 75 -2 63 -4z m656 -70 c-2 -72 -2 -74 -8 -29 -5 36 -15 55 -35 73 -26 22
-35 23 -124 21 l-97 -3 -3 -122 -3 -123 58 0 c70 0 83 7 93 51 6 25 8 10 8
-56 0 -51 -3 -77 -7 -60 -8 38 -43 56 -101 53 l-45 -3 0 -135 0 -135 96 -3
c92 -3 98 -1 128 24 26 22 31 33 31 70 0 24 5 44 10 44 6 0 10 -32 10 -75 l0
-75 -202 1 c-112 1 -191 4 -175 6 l27 4 0 269 0 269 -22 4 c-13 2 64 5 170 6
l192 1 -1 -77z m-2609 -813 c0 -6 -27 -10 -60 -10 l-60 0 0 -60 0 -60 60 0
c33 0 60 -4 60 -10 0 -6 -27 -10 -60 -10 l-60 0 0 -65 c0 -37 -4 -65 -10 -65
-6 0 -10 55 -10 145 l0 145 70 0 c40 0 70 -4 70 -10z m182 -7 c26 -23 27 -227
1 -255 -20 -23 -80 -24 -105 -1 -26 23 -27 227 -1 255 20 23 80 24 105 1z
m222 -5 c12 -17 16 -48 16 -125 0 -119 -13 -143 -74 -143 -65 0 -80 34 -75
171 4 103 15 119 80 119 28 0 42 -6 53 -22z m200 9 c24 -18 38 -98 30 -175 -8
-78 -35 -105 -98 -100 l-41 3 -3 143 -3 142 49 0 c26 0 56 -6 66 -13z m310 -4
c3 -10 19 -67 36 -128 17 -60 33 -118 36 -127 3 -10 1 -18 -4 -18 -5 0 -15 20
-21 45 l-11 45 -49 0 -49 0 -7 -40 c-6 -34 -25 -67 -25 -43 -1 20 76 283 82
283 4 0 9 -8 12 -17z m218 -100 l56 -118 1 118 c1 71 5 117 11 117 6 0 10 -55
10 -146 0 -112 -3 -145 -12 -142 -7 3 -36 55 -63 116 -28 61 -54 114 -58 118
-4 4 -7 -48 -7 -115 0 -79 -4 -120 -10 -116 -6 4 -10 63 -10 146 0 109 3 139
13 139 8 0 39 -53 69 -117z m269 98 c21 -17 23 -27 24 -107 0 -49 -3 -101 -7
-115 -9 -32 -52 -52 -99 -47 l-34 3 -3 143 -3 142 50 0 c33 0 56 -6 72 -19z
m253 -93 c16 -62 32 -119 36 -126 3 -7 21 43 39 112 19 69 38 126 43 126 5 0
7 -8 4 -17 -3 -10 -17 -61 -31 -113 -38 -141 -46 -163 -55 -153 -7 7 -80 259
-80 276 0 4 3 7 8 7 4 0 20 -51 36 -112z m216 -33 c0 -90 -4 -145 -10 -145 -6
0 -10 55 -10 145 0 90 4 145 10 145 6 0 10 -55 10 -145z m195 120 c29 -28 31
-51 10 -82 -14 -21 -14 -24 5 -43 13 -13 20 -33 20 -58 0 -54 -27 -76 -93 -77
l-52 0 -3 143 -3 142 46 0 c35 0 52 -6 70 -25z m245 15 c0 -6 -27 -10 -60 -10
l-60 0 0 -55 0 -55 54 0 c30 0 58 -4 61 -10 4 -6 -17 -10 -54 -10 l-61 0 0
-60 0 -60 60 0 c33 0 60 -4 60 -10 0 -6 -30 -10 -70 -10 l-70 0 0 145 0 145
70 0 c40 0 70 -4 70 -10z"/>
<path d="M4208 3794 c-10 -16 -98 -245 -98 -255 0 -5 45 -9 101 -9 l101 0 -6
25 c-14 55 -93 248 -98 239z"/>
<path d="M5225 3877 c-3 -7 -4 -127 -3 -267 l3 -255 60 -3 c80 -4 134 18 185
75 118 134 82 378 -65 444 -48 22 -173 26 -180 6z"/>
<path d="M3970 2975 c-6 -14 -10 -61 -10 -103 0 -95 16 -125 63 -120 42 4 57
35 57 123 0 92 -14 119 -63 123 -32 3 -38 0 -47 -23z"/>
<path d="M4220 3002 c-32 -9 -40 -36 -40 -125 0 -48 5 -97 10 -108 12 -22 68
-27 88 -7 17 17 16 212 0 225 -19 15 -41 21 -58 15z"/>
<path d="M4400 2875 l0 -125 33 0 c57 0 72 27 72 132 0 101 -10 118 -72 118
l-33 0 0 -125z"/>
<path d="M4777 2940 c-34 -116 -35 -110 13 -110 l42 0 -7 42 c-4 23 -13 60
-20 83 l-12 40 -16 -55z"/>
<path d="M5190 2875 l0 -125 34 0 c26 0 40 7 56 28 19 24 21 37 18 110 -3 94
-15 112 -75 112 l-33 0 0 -125z"/>
<path d="M5860 2950 l0 -50 38 0 c43 0 62 14 62 46 0 32 -26 54 -66 54 l-34 0
0 -50z"/>
<path d="M5860 2815 l0 -65 35 0 c39 0 85 36 85 65 0 29 -46 65 -85 65 l-35 0
0 -65z"/>
</g>
</svg>
